inDegrees=no
num_controls=7
num_derivatives=13
num_iterations=183
num_multipliers=7
num_parameters=0
num_slacks=7
num_states=26
objective=6.253478
objective_accelerations=0.716671
objective_balance=0.069716
objective_effort=0.570604
objective_height=4.849359
objective_ligament=0.047128
solver_duration=1947.640327
status=Solve_Succeeded
success=true
DataType=double
version=3
OpenSimVersion=4.4-2022-07-23-0e9fedc
endheader
time	/jointset/ground_pelvis/pelvis_tilt/value	/jointset/ground_pelvis/pelvis_tx/value	/jointset/ground_pelvis/pelvis_ty/value	/jointset/hip_l/hip_flexion_l/value	/jointset/hip_l/hip_adduction_l/value	/jointset/hip_l/hip_rotation_l/value	/jointset/back/lumbar_extension/value	/jointset/patellofemoral_l/patellar_flexion_l/value	/jointset/knee_l/knee_flexion_l/value	/jointset/knee_l/knee_adduction_l/value	/jointset/knee_l/knee_rotation_l/value	/jointset/ankle_l/ankle_angle_l/value	/jointset/subtalar_l/subtalar_angle_l/value	/jointset/ground_pelvis/pelvis_tilt/speed	/jointset/ground_pelvis/pelvis_tx/speed	/jointset/ground_pelvis/pelvis_ty/speed	/jointset/hip_l/hip_flexion_l/speed	/jointset/hip_l/hip_adduction_l/speed	/jointset/hip_l/hip_rotation_l/speed	/jointset/back/lumbar_extension/speed	/jointset/patellofemoral_l/patellar_flexion_l/speed	/jointset/knee_l/knee_flexion_l/speed	/jointset/knee_l/knee_adduction_l/speed	/jointset/knee_l/knee_rotation_l/speed	/jointset/ankle_l/ankle_angle_l/speed	/jointset/subtalar_l/subtalar_angle_l/speed	/forceset/tau_hip_flexion_l	/forceset/tau_hip_adduction_l	/forceset/tau_hip_rotation_l	/forceset/tau_knee_flexion_l	/forceset/tau_ankle_angle_l	/forceset/tau_subtalar_angle_l	/forceset/tau_lumbar_extension	lambda_cid13_p0	lambda_cid13_p1	lambda_cid13_p2	lambda_cid13_p3	lambda_cid13_p4	lambda_cid13_p5	lambda_cid14_p0	/jointset/ground_pelvis/pelvis_tilt/accel	/jointset/ground_pelvis/pelvis_tx/accel	/jointset/ground_pelvis/pelvis_ty/accel	/jointset/hip_l/hip_flexion_l/accel	/jointset/hip_l/hip_adduction_l/accel	/jointset/hip_l/hip_rotation_l/accel	/jointset/back/lumbar_extension/accel	/jointset/patellofemoral_l/patellar_flexion_l/accel	/jointset/knee_l/knee_flexion_l/accel	/jointset/knee_l/knee_adduction_l/accel	/jointset/knee_l/knee_rotation_l/accel	/jointset/ankle_l/ankle_angle_l/accel	/jointset/subtalar_l/subtalar_angle_l/accel	gamma_cid13_p0	gamma_cid13_p1	gamma_cid13_p2	gamma_cid13_p3	gamma_cid13_p4	gamma_cid13_p5	gamma_cid14_p0
1.5	-0.03651161055341035	-0.02376684884661699	0.8302558287607412	0.7989616550743165	-0.3154743865427423	-0.1231801967838574	-0.8095700034248795	0.8618183330894742	0.8618183330894753	-0.06688671085020559	-0.174532907630982	0.1660609295247473	0.03711165255657299	0.4353707857831214	0.2418049961168429	0.5235567737037018	-2.318607493210112	0.06072978805446913	-0.6224140934849316	0.8335883825362426	-2.220105080492142	-2.220105080492194	-0.2540686784007676	-4.245153303981286e-06	-0.4768497173008757	-0.1047164548021713	-0.2290704676391808	0.02177659264071987	-0.008811739384172587	-0.2254522430694882	0.06162087584016729	0.0473510208334842	0.2977972181865091	-21.313116189817	-18.76466393254323	4.743973816428067	-10.27747552867886	-663.1986733339443	-75.45220612188335	-12.10273984282387	0.1609778922048141	0.8068626670235567	-0.7417545411298364	-0.9100451898415212	0.4316064134932927	-0.6165056271715443	2.212245275827702	-1.139744249433874	-1.1397442494339	-0.1772814030040005	-0.002167008243911502	-0.4237898233327076	0.3959171991685423	5.760330023355555e-07	2.309894085530148e-07	-3.367211604961293e-06	-3.094863934751005e-07	6.743338958263651e-07	3.360635913985058e-07	4.323813451111401e-07
1.51	-0.03215008914245317	-0.0213086339956607	0.8354532838186253	0.7757319007621271	-0.3148467834031124	-0.129431874480067	-0.8011250654631946	0.839562746437115	0.8395627464371108	-0.06944069200285834	-0.1745327171270904	0.1612716691156756	0.03608279753163494	0.4368648679963332	0.2498152728961109	0.5158244201038565	-2.32704545010258	0.06480597518037892	-0.627835046279497	0.8552901897078153	-2.230704710516542	-2.230704710516585	-0.2567144234925089	8.57901391913907e-05	-0.4808987767847848	-0.1010064664004	-0.2205408120917468	0.0210267141557023	-0.008588796845133924	-0.2214671244825999	0.06257955608647131	0.04674252524841514	0.2897274850333877	-20.71322168219336	-18.69063752137258	4.829495954082675	-10.24862458239746	-657.5988553950008	-75.40618191745946	-12.97258954036249	0.1333860964979071	0.7946492473695954	-0.8053018165443231	-0.7659081707599706	0.3983039816310733	-0.4914511588901258	2.132795423872642	-0.974031683686262	-0.9740316836848516	-0.3062548557281012	0.02046725948490296	-0.3799040440527757	0.3660573852995001	5.91146741001649e-07	4.117529244386711e-07	-3.322835525220387e-06	-2.892312562389595e-07	7.131137298179708e-07	4.681369294541659e-07	4.447496995680773e-07
1.52	-0.02777567436723959	-0.01877100856411359	0.8405701501310845	0.752426719434652	-0.3141778825683257	-0.1357350739148731	-0.7924663800325839	0.8172103716235597	0.8172103716235566	-0.07202073736512106	-0.1745304505780465	0.1564450301051395	0.03509254593563822	0.4379494586342842	0.2576871122350065	0.5074390246187249	-2.333692896267474	0.06898932708593009	-0.6327184412057044	0.8763378763214137	-2.239462712730666	-2.239462712730699	-0.2592815203230038	0.0004109638912328324	-0.4843254375940029	-0.09699576901390498	-0.2120111565443021	0.02027683567071063	-0.00836585430609299	-0.2174820058957063	0.06353823633278427	0.04613402966337999	0.2816577518802679	-20.11135477776269	-18.61722508227279	4.915426440548812	-10.27662345978383	-652.0086633882077	-75.44544643605057	-13.82764784095102	0.07907957715267865	0.7791751789491371	-0.8723629181871123	-0.5519430443265925	0.4530393694215473	-0.5089940534999755	2.081421164232833	-0.771418687378402	-0.7714186873784001	-0.1615517507547333	0.04486068366523928	-0.2993100883944604	0.4560589961132658	5.999061260366481e-07	6.03756119048208e-07	-3.243115650917953e-06	-2.64245421267149e-07	7.48044598257683e-07	5.961611252625164e-07	4.538828089309333e-07
1.53	-0.02339244167662774	-0.01615546757360151	0.845599993143351	0.7290639621932049	-0.3134667148258075	-0.14208498377867	-0.783600776963827	0.7947795495712447	0.7947795495712499	-0.07462576005818869	-0.1745241250073234	0.1515871566348496	0.03414376267815179	0.4386248951603961	0.2653864680267324	0.4984274781479129	-2.338546149802576	0.07325406452979387	-0.6371708231158676	0.8966505473750949	-2.246385465899213	-2.246385465899241	-0.2617098480214306	0.0008962223767962228	-0.4871473507897529	-0.09272121262886679	-0.2034184247095442	0.01938410338280849	-0.008075916002471336	-0.2136652459378971	0.06437076344787342	0.04531027783745381	0.2734776283359104	-19.57959006155049	-18.42612460053964	4.968966242631473	-10.10415955025636	-646.6462719087295	-75.33870645708251	-14.66621786704026	0.05100063741014998	0.7600794700563448	-0.9307063851249991	-0.4050859497024583	0.4149949782582869	-0.3989617244837937	1.986361567695155	-0.6053613822562069	-0.6053613822555137	-0.2814452121556576	0.05608002347040132	-0.2583076931061363	0.4193159766200725	6.019140103386093e-07	8.07701472301868e-07	-3.125842994893896e-06	-2.342332199511895e-07	7.788859407985085e-07	7.198831074331006e-07	4.595784703813281e-07
1.54	-0.01900460963134073	-0.01346398028701783	0.85053668951619	0.7056620585280853	-0.3127125388995726	-0.1484765377545121	-0.7745360128861817	0.7722889684371177	0.7722889684371197	-0.07725466041480256	-0.1745118025332222	0.1467041288810138	0.03323895738789993	0.438869329569297	0.2728763714493264	0.4888096967332372	-2.341522181001698	0.07759096382923907	-0.641047263614402	0.9161700780991544	-2.251414529094294	-2.251414529094318	-0.2640570530306178	0.001610344561099309	-0.489356294303137	-0.08820017556698985	-0.1948256928747954	0.0184913710948984	-0.007785977698935779	-0.2098484859800887	0.06520329056296124	0.04448652601151901	0.2652975047915472	-19.04405455128313	-18.23619371836894	5.023277672068012	-9.993761844387661	-641.2717702042094	-75.31412734245633	-15.48738923503203	-0.007120846289567351	0.7372847051228065	-0.9936099069598324	-0.176498577130561	0.4674717405378123	-0.3938057711743008	1.922793098308517	-0.3926806926852138	-0.3926806926852588	-0.1453272129068502	0.0906334234131287	-0.1767161519212581	0.5053551314810067	6.034910853487331e-07	1.032065897879782e-06	-3.003165591433852e-06	-2.030669595764245e-07	8.141600452100305e-07	8.417967635644271e-07	4.666791898103547e-07
